<?xml version="1.0" encoding="UTF-8"?>
<svg version="1.1" viewBox="0 0 2048 1861" width="165" height="150" xmlns="http://www.w3.org/2000/svg">
<path transform="translate(1756,94)" d="m0 0h117l15 1 3 2 1 54 1 746 1 123v617l-7 2h-58l-102-1h-684l-2-3v-24l1-2h213l364-2 75-1 156-1-1-57-3-338v-33l1-123 1-189 1-65 1-146v-137l-1-131v-254l-242 1-443-1h-933l1 4 1 456v274l-1 2-4 1h-20l-13-2-3-2-1-8-1-70v-657l1-31 1-3 2-1 21 1 16 1h73l843-1h318l122-1z" fill="#3122A4"/>
<path transform="translate(1009,364)" d="m0 0h79l36 3 26 4 34 7 31 9 22 9 21 11 24 16 14 11 13 12 19 19 11 14 12 17 11 17 11 18 7 16 1 5-8 5-16 6-5 1h-9l-8-7-9-15-11-19-10-15-12-16-12-14-15-15-17-13-15-10-21-11-23-9-21-6-24-5-28-4-31-3-17-1h-52l-26 2-28 4-28 6-26 8-20 9-22 13-16 12-11 9-15 14-10 10-9 11-13 18-15 28-11 27-10 30-6 28-5 35-3 30-2 33-2 68v58l2 82 3 61 4 53 6 42 6 26 11 36 8 20 8 16 8 14 12 17 9 10 7 8 12 12 11 9 18 13 24 13 19 8 32 10 26 6 27 4 24 2h56l36-3 27-4 27-6 26-7 19-7 19-8 22-12 18-12 13-10 13-11 17-17 8-10 10-16 5-12 4-16 1-11 1-134v-113l-154-1-27-1-2-2v-26l2-4 2-1 96-1h86l34 1 15 1 4 1 1 101v25l-1 113-2 45-3 19-5 15-8 16-9 14-10 14-12 14-15 15-11 9-12 9-15 10-21 12-17 8-24 9-27 8-30 7-35 6-30 4-27 2h-74l-27-2-21-3-40-9-21-6-26-10-24-12-19-12-13-10-14-12-19-19-9-11-13-17-11-18-9-16-9-19-10-26-10-34-7-34-5-33-5-49-1-13-1-26v-201l2-40 6-56 6-34 6-28 8-27 8-23 13-29 12-21 12-18 9-12 11-13 19-19 14-11 21-14 16-9 16-8 14-6 27-9 38-9 32-5z" fill="#7E39B8"/>
<path transform="translate(1848,865)" d="m0 0h1v40l1-5 1-6-1-8 2-8-2-1 1-6-1-2 1-2h2v7h2v6h-2v2h2l1 9 1 7h2l-1-10 2-9 1-2v-5l3-6 2 4 4 4 2 9 2 20 2 14v9l2 12 1 16 2 31v11l1 7v8l1 8v13l2 22 1 23v14l1 11 1 27 1 3-1 2h2l1-13 1-16 1-85h1v617l-7 2h-58l-102-1h-684l-2-3v-24l1-2h213l364-2 75-1 156-1-1-57-3-338v-33l1-123z" fill="#974AB4"/>
<path transform="translate(1009,364)" d="m0 0h79l36 3 26 4 34 7 31 9 22 9 21 11 24 16 14 11 13 12 19 19 11 14 12 17 11 17 11 18 7 16 1 5-8 5-16 6-5 1h-9l-8-7-9-15-11-19-10-15-12-16-12-14-15-15-17-13-15-10-21-11-23-9-21-6-24-5-28-4-31-3-17-1h-52l-26 2-28 4-28 6-26 8-20 9-22 13-16 12-11 9-15 14-10 10-9 11-13 18-15 28-11 27-10 30-6 28-5 35-3 30-2 33-2 68v58l2 82 3 61 4 53 6 42 6 26 11 36 8 20v6l-8-1-4-2-10-18-5-13-4-14-2-6-6-24-4-23-2-15-1-6-4-56-2-10-1-4-2-19-1-16v-7l-2-1-1-6-1-5 2-13-2-10 2-6-1-4v-32l1-5-1-25-1-5-3 1v13l-3 20-1 3h-2l2 8-1 19 1 4-2 5 1 6-2 13 2 6v10l-1 1v17l-1 3 2 1h-2l1 6-1 4 3 1v3h-3l2 6v8l2 9-1 5 1 12 3 18 1 11 3 11 3 23 4 24 2 7v9h2l3 12v3l6 21 2 5 1 7-2 11-2 2h-3l-8-19-8-22-8-28-7-34-5-33-5-49-1-13-1-26v-201l2-40 6-56 6-34 6-28 8-27 8-23 13-29 12-21 12-18 9-12 11-13 19-19 14-11 21-14 16-9 16-8 14-6 27-9 38-9 32-5z" fill="#3122A4"/>
<path transform="translate(1848,865)" d="m0 0h1v40l1-5 1-6-1-8 2-8-2-1 1-6-1-2 1-2h2v7h2v6h-2v2h2l1 9 1 7h2l-1-10 2-9 1-2v-5l3-6 2 4 4 4 2 9 2 20 2 14v9l2 12 1 16 2 31v11l1 7v8l1 8v13l2 22 1 23v14l1 11 1 27 1 3-1 2h2l1-13 1-16 1-85h1v242l-1 55-1 5-2 2-1 23-1 76h-2l-1-104-1-9-1-5 1-4-5-8-1-5-5-2-4-16-2-1-1 9-1 5v16l-1 25-1 6-2 22v14l-1 9-1 6-1 11-2 6h-2v2h-2l-1 3h-1l-1-12-2-69-1-112v-33l1-123z" fill="#7E39B8"/>
<path transform="translate(1255,871)" d="m0 0h86l34 1 15 1 4 1 1 101v25l-1 113-2 45-3 19-5 15-8 16-9 14-10 14-12 14-8 8-6 3 1-5h2l1-4 6-9 2-1 3-6v-2h2v-2l2-1 1-3h2l1-3 7-7 2-6 4-5 2-5 1-4 2-9v-9l3-13v-12l1-1 1-35 2-26 1-7-1-8v-9l1-11-1-9-1-6 1-1-1-7-1-46v-27l-2-28v-8l-2-14v-9l-1-8-2-4-3-5v-2h-6l-5 2-1 16 1 9v15l-1 5v19l-1 16v40l-1 34-1 54-2 50-2 23-2 15-2 7-1 5-2 5-5 9h-2l-2 5-3 1 1-3-2-2v-3h3l-1-7v-5l-1-5 5-15 2-9 1-11 1-134v-113l-154-1-27-1-2-2v-26l2-4 2-1z" fill="#3323A4"/>
<path transform="translate(1042,1609)" d="m0 0h37l18 1-4 2-4 1h-10l-4 1-6-1 2 5h8l2 1v2l-6 1h-4l-1 3-8 2v2l-8 1-6 1v-2l-4 1v-2h-2z" fill="#7E39B8"/>
<path transform="translate(194,95)" d="m0 0 21 1 16 1v1h-29-4l-5 3v19l-1 54-1 226h-1v-270l1-31 1-3z" fill="#8840B6"/>
<path transform="translate(1317,1609)" d="m0 0h95l-4 3-18 2-5-1-15 1-10-1h-3-10l-21-1-6-1-3-1z" fill="#7E39B9"/>
<path transform="translate(790,1260)" d="m0 0 4 2 3 2v2l4 2 6 4 8 3 1 2 5 2v3l4 1 7 8 9 9 5 2 1 3-5-2-16-10-16-13-12-11-8-8z" fill="#974AB4"/>
<path transform="translate(194,95)" d="m0 0 21 1 16 1v1h-29-4l-5 3v19l-2 43h-1v-33l1-31 1-3z" fill="#FEFEFE"/>
<path transform="translate(230,132)" d="m0 0 2 4v88h-1l-1-72-2-14 1-5z" fill="#7E39B9"/>
<path transform="translate(230,132)" d="m0 0 2 4v20l-2-4-2-14 1-5z" fill="#863FB7"/>
<path transform="translate(1363,945)" d="m0 0 3 1-1 4 1 3-1 4-4-1v-9z" fill="#9649B4"/>
<path transform="translate(1053,1317)" d="m0 0h9l2 2-4 1h-12l-11-1v-1z" fill="#3022A4"/>
<path transform="translate(876,1281)" d="m0 0 6 2 1 4-4 1-3-3z" fill="#3824A5"/>
</svg>
